<?xml version="1.0" encoding="utf-8"?>
<!-- Generator: Adobe Illustrator 28.2.0, SVG Export Plug-In . SVG Version: 6.00 Build 0)  -->
<svg version="1.1" id="Capa_1" xmlns="http://www.w3.org/2000/svg" xmlns:xlink="http://www.w3.org/1999/xlink" x="0px" y="0px"
	 viewBox="0 0 97.5 73.5" style="enable-background:new 0 0 97.5 73.5;" xml:space="preserve">
<style type="text/css">
	.st0{fill:#444444;}
</style>
<path class="st0" d="M90.1,10.1c-1.1-0.5-2.4-0.8-2.4-0.8C87.2,9.2,86.1,9,85.4,9c-5.6,0-11.6,5-14.8,12.5
	c-1.9,4.3-2.5,8.8-1.9,12.8c0.6,4,2.6,7.1,5.4,8.6l-3,6.6c-0.6,0.2-1.2,0.4-1.8,0.8l-11.4,7.5c0,0-16.3-24.6-16.4-24.7
	c-1.9-3.5-8.1-6.9-13.9-5.2C13.7,32.1,1.5,58.1,0,73.5l42,0l0.8-10.3L30.6,44.6c-0.4-0.5-0.2-1.3,0.3-1.6c0.5-0.4,1.3-0.2,1.6,0.3
	l18.2,27.6c1.3,1.7,3.2,2.6,5.2,2.6c1.2,0,2.5-0.4,3.6-1.1l16.9-11.2c3-2,3.9-6.1,1.9-9.1c-0.8-1.2-1.9-2-3.2-2.5l2.3-5.1
	c1,0.3,2.1,0.5,3.2,0.5c2.3,0,4.6-0.8,6.9-2.3c3.2-2.2,6-5.8,8-10.3C99.6,23,97.1,13.5,90.1,10.1z M89.7,29.8
	c-2.6,6.1-7.6,10.5-11.8,10.5c-0.8,0-1.5-0.1-2.1-0.4c-2-0.9-3.4-3-3.9-6.1c-0.5-3.3,0.1-7.2,1.7-10.9c2.6-6.1,7.6-10.5,11.8-10.5
	c0.8,0,1.5,0.1,2.1,0.4C91.9,14.6,92.9,22.4,89.7,29.8z"/>
<g>
	<path class="st0" d="M43.3,29.8c6.6,3.9,15.2,1.7,19.1-4.9c3.9-6.6,1.7-15.2-4.9-19.2C50.9,1.8,42.4,4,38.4,10.6
		C34.5,17.3,36.7,25.8,43.3,29.8z"/>
	<path class="st0" d="M81.5,20c1.2-1.2,2.5-1.7,3.4-1.4c0.6,0.2,1,0.6,1.4,1.3c0.3,0.5,0.9,0.7,1.4,0.4c0.5-0.3,0.7-0.9,0.4-1.4
		c-0.6-1.2-1.5-2-2.6-2.3c-1.7-0.6-3.7,0.1-5.5,1.9c-1.6,1.6-3,3.9-3.9,6.6c-0.5,1.7-0.8,3.4-0.9,4.9c0,0.6,0.4,1,1,1.1c0,0,0,0,0,0
		c0.6,0,1-0.4,1-1c0-1.4,0.3-2.9,0.8-4.4C78.9,23.4,80.1,21.3,81.5,20z"/>
</g>
</svg>
