<?xml version="1.0" encoding="utf-8"?>
<!-- Generator: Adobe Illustrator 28.2.0, SVG Export Plug-In . SVG Version: 6.00 Build 0)  -->
<svg version="1.1" xmlns="http://www.w3.org/2000/svg" xmlns:xlink="http://www.w3.org/1999/xlink" x="0px" y="0px"
	 viewBox="0 0 100 102" style="enable-background:new 0 0 100 102;" xml:space="preserve">
<style type="text/css">
	.st0{fill:#444444;}
</style>
<g id="Capa_2">
</g>
<g id="Capa_1">
	<g>
		<path class="st0" d="M96.3,14.3c-1.4-2-3-4-4.9-5.9c-1.3-1.3-3.3-2.9-5.8-4.6c-2.8-2-6.7-1.6-9.1,0.8l-3,3
			c3.5,2.1,7.1,4.9,10.4,8.3c3.3,3.3,6.1,6.9,8.3,10.5l3.2-3.2C97.8,20.8,98.2,17.1,96.3,14.3z"/>
		<path class="st0" d="M68.9,12.2L29.6,51.5c-0.2,0.2-0.4,0.5-0.5,0.8l-7.7,21.9c-0.4,1.2-0.1,2.5,0.8,3.5l0,0
			c0.9,0.9,2.2,1.2,3.5,0.8l21.9-7.7c0.3-0.1,0.6-0.3,0.8-0.5L87.6,31c-2-3.6-4.7-7.2-8.1-10.6S72.5,14.2,68.9,12.2z M44.5,67.3
			l-12.6,4.4c-0.4-0.8-0.9-1.5-1.6-2.2s-1.4-1.2-2.2-1.6l4.4-12.6l3.7-0.1c0.9,0,1.6,0.7,1.6,1.6l-0.1,3.8c0,0.9,0.7,1.6,1.6,1.6
			L43,62c0.9,0,1.6,0.7,1.6,1.6L44.5,67.3z"/>
		<path class="st0" d="M79.5,53c-2.2,0-3.9,1.7-3.9,3.9v26.3c0,3.5-2.9,6.4-6.4,6.4H16.7c-3.5,0-6.4-2.9-6.4-6.4V30.8
			c0-3.5,2.9-6.4,6.4-6.4H43c2.2,0,3.9-1.7,3.9-3.9s-1.7-3.9-3.9-3.9H16.7C8.8,16.6,2.5,23,2.5,30.8v52.4c0,7.9,6.4,14.2,14.2,14.2
			h52.4c7.9,0,14.2-6.4,14.2-14.2V56.9C83.4,54.8,81.7,53,79.5,53z"/>
	</g>
</g>
</svg>
