<?xml version="1.0" encoding="utf-8"?>
<!-- Generator: Adobe Illustrator 28.2.0, SVG Export Plug-In . SVG Version: 6.00 Build 0)  -->
<svg version="1.1" id="Capa_1" xmlns="http://www.w3.org/2000/svg" xmlns:xlink="http://www.w3.org/1999/xlink" x="0px" y="0px"
	 viewBox="0 0 32 27.2" style="enable-background:new 0 0 32 27.2;" xml:space="preserve">
<style type="text/css">
	.st0{fill:#444444;}
</style>
<path class="st0" d="M26,3H6C3.8,3,2,4.8,2,7v14c0,2.2,1.8,4,4,4h20c2.2,0,4-1.8,4-4V7C30,4.8,28.2,3,26,3z M11.7,17.3
	c0.9,0.9-0.5,2.3-1.4,1.4l-4-4c-0.4-0.4-0.4-1,0-1.4l4-4c0.9-0.9,2.3,0.5,1.4,1.4L8.4,14L11.7,17.3L11.7,17.3z M18,10.3l-2,8
	c-0.3,1.3-2.3,0.8-1.9-0.5l2-8C16.4,8.5,18.3,9,18,10.3z M25.7,14.7l-4,4c-0.9,0.9-2.4-0.5-1.4-1.4l3.3-3.3l-3.3-3.3
	c-0.9-0.9,0.5-2.3,1.4-1.4l4,4C26.1,13.7,26.1,14.3,25.7,14.7L25.7,14.7z"/>
</svg>
