<?xml version="1.0" encoding="utf-8"?>
<!-- Generator: Adobe Illustrator 28.2.0, SVG Export Plug-In . SVG Version: 6.00 Build 0)  -->
<svg version="1.1" id="Capa_1" xmlns="http://www.w3.org/2000/svg" xmlns:xlink="http://www.w3.org/1999/xlink" x="0px" y="0px"
	 viewBox="0 0 100 101" style="enable-background:new 0 0 100 101;" xml:space="preserve">
<style type="text/css">
	.st0{fill-rule:evenodd;clip-rule:evenodd;fill:#444444;}
</style>
<path class="st0" d="M34.5,49.4h-4.4c-0.7,0-1.3-0.6-1.3-1.3v-4.4l-10.1-0.1V65h15.9L34.5,49.4z M31.4,45.6l1.3,1.3h-1.3V45.6
	L31.4,45.6z M30.1,41.3c0,0,0.1,0,0.1,0c0.3,0,0.7,0.1,0.9,0.4l5.6,5.6c0,0,0.1,0.1,0.1,0.1l0,0l0,0l0,0l0,0l0,0l0,0l0,0l0,0l0,0
	l0,0l0,0v0l0,0l0,0l0,0v0l0,0l0,0v0l0,0l0,0l0,0l0,0l0,0l0,0l0,0l0,0l0,0c0.1,0.2,0.1,0.4,0.1,0.6c0,0,0,0.1,0,0.1l0.1,18
	c0,0.7-0.6,1.3-1.3,1.3c0,0,0,0,0,0h0l0,0H17.5c-0.7,0-1.3-0.6-1.3-1.3V42.4c0-0.7,0.6-1.3,1.3-1.3c0,0,0.1,0,0.1,0L30.1,41.3
	L30.1,41.3z M82.5,42.3c0.7,0,1.2,0.6,1.2,1.3c0,0.7-0.6,1.2-1.2,1.2l-16.6,0c-0.7,0-1.3-0.5-1.3-1.2c0-0.7,0.5-1.3,1.2-1.3
	c0,0,0,0,0.1,0L82.5,42.3L82.5,42.3z M82.5,49.1c0.7,0,1.3,0.6,1.3,1.3c0,0.7-0.6,1.3-1.3,1.3l-16.6,0c-0.7,0-1.3-0.6-1.3-1.3
	c0-0.7,0.6-1.3,1.3-1.3L82.5,49.1L82.5,49.1z M82.5,55.9c0.7,0,1.3,0.6,1.3,1.3c0,0.7-0.6,1.3-1.3,1.3l-36.8,0
	c-0.7,0-1.3-0.6-1.3-1.3c0-0.7,0.6-1.3,1.3-1.3l0,0L82.5,55.9L82.5,55.9z M82.5,62.7c0.7,0,1.2,0.6,1.2,1.3c0,0.7-0.6,1.2-1.2,1.2
	l-36.8,0c-0.7,0-1.2-0.6-1.2-1.3c0-0.7,0.6-1.2,1.2-1.2L82.5,62.7L82.5,62.7z M72.5,92.3H27.8V95h44.7V92.3z M60.2,89.7
	c-0.4-0.3-0.8-0.7-1.2-1c-2-2-3.2-4.5-3.5-7.3H44.8c-0.3,2.8-1.5,5.3-3.5,7.3c-0.4,0.4-0.8,0.7-1.2,1L60.2,89.7z M88.7,75H11.3v1.5
	c0,1.3,1,2.3,2.3,2.3h72.8c1.3,0,2.3-1,2.3-2.3L88.7,75L88.7,75z M46.4,37.1v11h7.9v-11c0-0.7,0.6-1.3,1.3-1.3H58l-2.7-3.2
	c0,0-0.1-0.1-0.1-0.1l-4.8-5.7l-4.8,5.7c0,0-0.1,0.1-0.1,0.1l-2.7,3.2h2.5C45.8,35.8,46.4,36.4,46.4,37.1L46.4,37.1z M43.9,30.5
	H33.1c-4.5-0.1-8.2-3.8-8.1-8.3c0-4.5,3.7-8.1,8.1-8.1h1.4c0.7,0,1.2-0.5,1.3-1.2c0.7-5,5.4-8.5,10.4-7.8c2.6,0.4,4.9,1.8,6.3,4
	c0.4,0.6,1.2,0.7,1.7,0.3c0,0,0,0,0.1,0l0,0c2.4-1.9,6-1.4,7.8,1c0.6,0.7,0.9,1.6,1.1,2.5c0.1,0.6,0.6,1.1,1.3,1.1h2.3
	c4.5,0.1,8.2,3.8,8.1,8.3c0,4.5-3.7,8.1-8.1,8.1H56.8l-5.5-6.4c0-0.1-0.1-0.1-0.2-0.2c-0.5-0.4-1.3-0.4-1.8,0.1L43.9,30.5L43.9,30.5
	z M43.9,49.4c0,0.7,0.6,1.3,1.3,1.3h10.4c0.7,0,1.3-0.6,1.3-1.3v-11h3.9l0,0c0.7,0,1.3-0.6,1.3-1.3c0-0.3-0.1-0.6-0.3-0.8L58.9,33
	h7.9c5.3,0,9.8-3.8,10.6-9.1h8.9c1.3,0,2.3,1,2.3,2.3v46.3H11.3V26.3c0-1.3,1-2.3,2.3-2.3h8.9c0.8,5.2,5.3,9,10.6,9.1h8.6L39,36.2
	c-0.5,0.5-0.5,1.3,0,1.8c0.2,0.2,0.6,0.4,0.9,0.4h3.9L43.9,49.4z"/>
</svg>
